<!DOCTYPE svg PUBLIC "-//W3C//DTD SVG 1.1//EN" "http://www.w3.org/Graphics/SVG/1.1/DTD/svg11.dtd">
<!-- Uploaded to: SVG Repo, www.svgrepo.com, Transformed by: SVG Repo Mixer Tools -->
<svg height="800px" width="800px" version="1.1" id="Layer_1" xmlns="http://www.w3.org/2000/svg" xmlns:xlink="http://www.w3.org/1999/xlink" viewBox="0 0 512 512" xml:space="preserve" fill="#000000">
<g id="SVGRepo_bgCarrier" stroke-width="0"/>
<g id="SVGRepo_tracerCarrier" stroke-linecap="round" stroke-linejoin="round"/>
<g id="SVGRepo_iconCarrier"> <g transform="translate(1 1)"> <path style="fill:#e91616;" d="M255.438,502.467H48.931c-14.507,0-26.453-10.24-24.747-25.6l18.773-241.493 c1.707-12.8,11.947-23.04,24.747-23.04h75.947h91.307c12.8,0,23.893,10.24,24.747,23.04l20.48,238.933 C281.038,489.667,269.945,502.467,255.438,502.467"/> <path style="fill:#FFFFFF;" d="M49.785,476.867l18.773-241.493c1.707-12.8,11.947-23.04,24.747-23.04h-25.6 c-12.8,0-23.893,10.24-24.747,23.04L24.185,476.867c-0.853,15.36,10.24,25.6,24.747,25.6h25.6 C60.025,502.467,48.931,492.227,49.785,476.867"/> <path style="fill:#e91616;" d="M457.678,141.507c-1.707-17.92-16.213-31.573-33.28-31.573H202.531 c-17.067,0-31.573,13.653-33.28,31.573l-0.853,5.973c15.36,5.973,26.453,20.48,26.453,36.693v28.16h40.107 c12.8,0,23.893,10.24,24.747,23.04l20.48,238.933c0.853,15.36-10.24,28.16-24.747,28.16h196.267 c19.627,0,34.987-17.067,33.28-36.693L457.678,141.507z"/> <path style="fill:#b00c0c;" d="M449.998,502.467c19.627,0,34.987-17.067,33.28-36.693l-27.307-324.267 c-1.707-17.92-16.213-31.573-33.28-31.573h-25.6c17.067,0,31.573,13.653,33.28,31.573l27.307,324.267 c1.707,19.627-13.653,36.693-33.28,36.693H449.998z"/> <path style="fill:#e91616;" d="M253.732,502.467L253.732,502.467"/> <path d="M374.052,118.467H254.585c-5.12,0-8.533-3.413-8.533-8.533V67.267C246.052,29.72,276.772-1,314.318-1 s68.267,30.72,68.267,68.267v42.667C382.585,115.053,379.172,118.467,374.052,118.467z M263.118,101.4h102.4V67.267 c0-28.16-23.04-51.2-51.2-51.2s-51.2,23.04-51.2,51.2V101.4z"/> <path d="M314.318,229.4c-37.547,0-68.267-30.72-68.267-69.12v-7.68c0-5.12,3.413-8.533,8.533-8.533s8.533,3.413,8.533,8.533v7.68 c0,28.16,23.04,52.053,51.2,52.053s51.2-23.893,51.2-52.053v-7.68c0-5.12,3.413-8.533,8.533-8.533s8.533,3.413,8.533,8.533v7.68 C382.585,198.68,351.865,229.4,314.318,229.4z"/> <path d="M255.438,511H48.931c-10.24,0-18.773-4.267-25.6-10.24c-5.12-6.827-8.533-15.36-7.68-24.747L34.425,234.52 c1.707-17.067,16.213-30.72,33.28-30.72h166.4c17.92,0,31.573,13.653,33.28,31.573l20.48,238.933 c0.853,9.387-2.56,19.627-8.533,26.453C273.358,506.733,264.825,511,255.438,511z M67.705,220.867 c-8.533,0-15.36,6.827-16.213,15.36L32.718,477.72c0,4.267,0.853,8.533,3.413,11.093c3.413,3.413,7.68,5.12,12.8,5.12h205.653 c4.267,0,8.533-1.707,11.947-5.12c3.413-3.413,5.12-8.533,4.267-13.653l-20.48-238.933c-0.853-8.533-7.68-15.36-16.213-15.36 L67.705,220.867L67.705,220.867z"/> <path d="M194.852,220.867h-85.333c-5.12,0-8.533-3.413-8.533-8.533v-28.16c0-26.453,23.04-48.64,51.2-48.64s51.2,21.333,51.2,48.64 v28.16C203.385,217.453,199.972,220.867,194.852,220.867z M118.051,203.8h68.267v-19.627c0-17.067-15.36-31.573-34.133-31.573 s-34.133,13.653-34.133,31.573V203.8z"/> <path d="M152.185,314.733c-28.16,0-51.2-21.333-51.2-48.64V255c0-5.12,3.413-8.533,8.533-8.533s8.533,3.413,8.533,8.533v11.093 c0,17.067,15.36,31.573,34.133,31.573s34.133-13.653,34.133-31.573V255c0-5.12,3.413-8.533,8.533-8.533 c5.12,0,8.533,3.413,8.533,8.533v11.093C203.385,293.4,180.345,314.733,152.185,314.733z"/> <path d="M451.705,511H255.438c-5.12,0-8.533-3.413-8.533-8.533c0-5.12,3.413-8.533,8.533-8.533c4.267,0,8.533-1.707,11.947-5.12 c3.413-3.413,5.12-8.533,4.267-13.653l-20.48-238.933c-0.853-8.533-7.68-15.36-16.213-15.36h-40.107 c-5.12,0-8.533-3.413-8.533-8.533v-28.16c0-12.8-8.533-23.893-20.48-29.013c-3.413-1.707-5.973-5.12-5.12-8.533l0.853-5.973 c1.707-22.187,19.627-39.253,41.813-39.253h221.867c22.187,0,40.107,17.067,41.813,39.253l0,0l27.307,324.267 c0.853,11.947-3.413,23.893-11.093,33.28C473.892,505.88,463.652,511,451.705,511z M284.452,493.933h167.253 c6.827,0,13.653-2.56,17.92-7.68c5.12-5.12,7.68-12.8,6.827-19.627L449.145,142.36c-0.853-13.653-11.947-23.04-24.747-23.04 H202.531c-12.8,0-23.893,10.24-24.747,23.04l0,0c16.213,8.533,25.6,24.747,25.6,41.813V203.8h31.573 c17.92,0,31.573,13.653,33.28,31.573l20.48,238.933C289.572,481.133,287.865,487.96,284.452,493.933z"/> <path d="M483.278,451.267h-58.027c-5.12,0-8.533-3.413-8.533-8.533c0-5.12,3.413-8.533,8.533-8.533h58.027 c5.12,0,8.533,3.413,8.533,8.533C491.812,447.853,487.545,451.267,483.278,451.267z"/> <path d="M479.865,417.133h-71.68c-5.12,0-8.533-3.413-8.533-8.533c0-5.12,3.413-8.533,8.533-8.533h71.68 c5.12,0,8.533,3.413,8.533,8.533C488.398,413.72,484.985,417.133,479.865,417.133z"/> <path d="M279.332,476.867h-58.88c-5.12,0-8.533-3.413-8.533-8.533c0-5.12,3.413-8.533,8.533-8.533h58.88 c5.12,0,8.533,3.413,8.533,8.533C287.865,473.453,284.452,476.867,279.332,476.867z"/> <path d="M276.772,442.733h-73.387c-5.12,0-8.533-3.413-8.533-8.533c0-5.12,3.413-8.533,8.533-8.533h73.387 c5.12,0,8.533,3.413,8.533,8.533C285.305,439.32,281.038,442.733,276.772,442.733z"/> </g> </g>
</svg>